REM DIRINDEX 1\2\6,1\2\7,1\2\8,1\3\9,1\3\10,1\3\11,1\4\12,1\4\13,1\4\14,1\5\15,1\5\16,1\5\17,1\5\18
REM DIRNAME folder01,folder02,folder03,folder04,folder05,folder06,folder07,folder08,folder09,folder10,folder11,folder12,folder13,folder14,folder15,folder16,folder17,folder18
TITLE ""
FILE "2Q_t_0636-0653.mp3" MP3
  TRACK 01 AUDIO
    TITLE "13:cjc019_3331"
    INDEX 01 00:00:00
  TRACK 02 AUDIO
    TITLE "0:"
    INDEX 01 00:00:70
  TRACK 03 AUDIO
    TITLE "14:cjc019_3332"
    INDEX 01 00:01:56
  TRACK 04 AUDIO
    TITLE "0:"
    INDEX 01 00:02:65
  TRACK 05 AUDIO
    TITLE "13:cjc019_3333"
    INDEX 01 00:03:49
  TRACK 06 AUDIO
    TITLE "0:"
    INDEX 01 00:04:74
  TRACK 07 AUDIO
    TITLE "14:cjc019_3334"
    INDEX 01 00:05:61
  TRACK 08 AUDIO
    TITLE "0:"
    INDEX 01 00:07:56
  TRACK 09 AUDIO
    TITLE "13:cjc019_3335"
    INDEX 01 00:08:34
  TRACK 10 AUDIO
    TITLE "0:"
    INDEX 01 00:09:67
  TRACK 11 AUDIO
    TITLE "14:cjc019_3336"
    INDEX 01 00:10:47
  TRACK 12 AUDIO
    TITLE "0:"
    INDEX 01 00:12:54
  TRACK 13 AUDIO
    TITLE "13:cjc019_3337"
    INDEX 01 00:13:32
  TRACK 14 AUDIO
    TITLE "0:"
    INDEX 01 00:14:41
  TRACK 15 AUDIO
    TITLE "14:cjc019_3338"
    INDEX 01 00:15:23
  TRACK 16 AUDIO
    TITLE "0:"
    INDEX 01 00:17:72
  TRACK 17 AUDIO
    TITLE "13:cjc019_3339"
    INDEX 01 00:18:52
  TRACK 18 AUDIO
    TITLE "0:"
    INDEX 01 00:20:12
  TRACK 19 AUDIO
    TITLE "14:cjc019_3340"
    INDEX 01 00:20:71
  TRACK 20 AUDIO
    TITLE "0:"
    INDEX 01 00:22:11
  TRACK 21 AUDIO
    TITLE "13:cjc019_3341"
    INDEX 01 00:22:70
  TRACK 22 AUDIO
    TITLE "0:"
    INDEX 01 00:23:73
  TRACK 23 AUDIO
    TITLE "14:cjc019_3342"
    INDEX 01 00:24:55
  TRACK 24 AUDIO
    TITLE "0:"
    INDEX 01 00:26:71
  TRACK 25 AUDIO
    TITLE "13:cjc019_3343"
    INDEX 01 00:27:49
  TRACK 26 AUDIO
    TITLE "0:"
    INDEX 01 00:28:72
  TRACK 27 AUDIO
    TITLE "14:cjc019_3344"
    INDEX 01 00:29:52
  TRACK 28 AUDIO
    TITLE "0:"
    INDEX 01 00:32:03
  TRACK 29 AUDIO
    TITLE "13:cjc019_3345"
    INDEX 01 00:32:56
  TRACK 30 AUDIO
    TITLE "0:"
    INDEX 01 00:33:62
  TRACK 31 AUDIO
    TITLE "14:cjc019_3346"
    INDEX 01 00:34:45
  TRACK 32 AUDIO
    TITLE "0:"
    INDEX 01 00:37:18
  TRACK 33 AUDIO
    TITLE "13:cjc019_3347"
    INDEX 01 00:37:71
  TRACK 34 AUDIO
    TITLE "0:"
    INDEX 01 00:39:17
  TRACK 35 AUDIO
    TITLE "14:cjc019_3348"
    INDEX 01 00:39:74
  TRACK 36 AUDIO
    TITLE "0:"
    INDEX 01 00:44:24
  TRACK 37 AUDIO
    TITLE "13:cjc019_3349"
    INDEX 01 00:45:02
  TRACK 38 AUDIO
    TITLE "0:"
    INDEX 01 00:46:39
  TRACK 39 AUDIO
    TITLE "14:cjc019_3350"
    INDEX 01 00:47:27
  TRACK 40 AUDIO
    TITLE "0:"
    INDEX 01 00:48:57
  TRACK 41 AUDIO
    TITLE "13:cjc019_3351"
    INDEX 01 00:49:37
  TRACK 42 AUDIO
    TITLE "0:"
    INDEX 01 00:50:52
  TRACK 43 AUDIO
    TITLE "14:cjc019_3352"
    INDEX 01 00:51:30
  TRACK 44 AUDIO
    TITLE "0:"
    INDEX 01 00:52:47
  TRACK 45 AUDIO
    TITLE "13:cjc019_3353"
    INDEX 01 00:53:25
  TRACK 46 AUDIO
    TITLE "0:"
    INDEX 01 00:54:30
  TRACK 47 AUDIO
    TITLE "14:cjc019_3354"
    INDEX 01 00:55:12
  TRACK 48 AUDIO
    TITLE "0:"
    INDEX 01 00:56:04
  TRACK 49 AUDIO
    TITLE "13:cjc019_3355"
    INDEX 01 00:56:57
  TRACK 50 AUDIO
    TITLE "0:"
    INDEX 01 00:57:68
  TRACK 51 AUDIO
    TITLE "14:cjc019_3356"
    INDEX 01 00:58:50
  TRACK 52 AUDIO
    TITLE "0:"
    INDEX 01 01:02:42
  TRACK 53 AUDIO
    TITLE "13:cjc019_3357"
    INDEX 01 01:03:27
  TRACK 54 AUDIO
    TITLE "0:"
    INDEX 01 01:04:58
  TRACK 55 AUDIO
    TITLE "14:cjc019_3358"
    INDEX 01 01:05:38
  TRACK 56 AUDIO
    TITLE "0:"
    INDEX 01 01:09:42
  TRACK 57 AUDIO
    TITLE "13:cjc019_3359"
    INDEX 01 01:10:20
  TRACK 58 AUDIO
    TITLE "0:"
    INDEX 01 01:11:60
  TRACK 59 AUDIO
    TITLE "14:cjc019_3360"
    INDEX 01 01:12:36
  TRACK 60 AUDIO
    TITLE "0:"
    INDEX 01 01:13:63
  TRACK 61 AUDIO
    TITLE "13:cjc019_3361"
    INDEX 01 01:14:43
  TRACK 62 AUDIO
    TITLE "0:"
    INDEX 01 01:15:58
  TRACK 63 AUDIO
    TITLE "14:cjc019_3362"
    INDEX 01 01:16:40
  TRACK 64 AUDIO
    TITLE "0:"
    INDEX 01 01:18:60
  TRACK 65 AUDIO
    TITLE "13:cjc019_3363"
    INDEX 01 01:19:46
  TRACK 66 AUDIO
    TITLE "0:"
    INDEX 01 01:20:59
  TRACK 67 AUDIO
    TITLE "14:cjc019_3364"
    INDEX 01 01:21:49
  TRACK 68 AUDIO
    TITLE "0:"
    INDEX 01 01:23:46
  TRACK 69 AUDIO
    TITLE "13:cjc019_3365"
    INDEX 01 01:24:28
  TRACK 70 AUDIO
    TITLE "0:"
    INDEX 01 01:25:35
  TRACK 71 AUDIO
    TITLE "14:cjc019_3366"
    INDEX 01 01:26:21
  TRACK 72 AUDIO
    TITLE "0:"
    INDEX 01 01:28:27
